# Blender v2.80 (sub 75) OBJ File: 'mage_wall.blend'
# www.blender.org
mtllib wall.mtl
o Mesh_Cube.001
v 2.056916 3.071511 -0.263188
v 2.742074 0.023165 -0.263189
v 2.056916 0.023165 -0.263189
v -2.739189 0.023165 0.234959
v -2.054031 0.023165 0.234959
v -2.054031 3.071511 0.234960
v -2.739189 3.333488 0.234960
v 0.001443 0.023165 -0.263189
v -0.683715 0.023165 -0.263189
v 0.686601 2.814474 0.234959
v 0.001443 2.761748 0.234959
v 0.001443 0.023165 0.234959
v 0.686601 0.023165 0.234959
v 1.371758 2.901801 0.234959
v 1.371758 0.023165 0.234959
v 2.056916 0.023165 0.234959
v -2.054031 3.071511 -0.263188
v -1.368873 2.901801 -0.263189
v -1.368873 0.023165 -0.263189
v -2.054031 0.023165 -0.263189
v 1.371758 0.023165 -0.263189
v 0.686601 0.023165 -0.263189
v -1.368873 0.023165 0.234959
v -0.683715 0.023165 0.234959
v -2.739189 3.333488 -0.263188
v -2.739189 0.023165 -0.263189
v 2.742074 3.333488 0.234960
v 2.742074 0.023165 0.234959
v 2.742074 3.543826 0.234960
v 2.742074 3.543826 -0.263188
v 2.742074 0.023165 -0.385294
v 3.328265 0.023165 0.357065
v 2.742074 0.023165 0.357065
v 3.328265 0.023165 -0.385294
v 2.056916 3.071511 0.234960
v 2.742074 3.333488 -0.263188
v 1.371758 2.901801 -0.263189
v 0.686601 2.814474 -0.263189
v 0.001443 2.761748 -0.263189
v -0.683715 2.814474 -0.263189
v -0.683715 2.814474 0.234959
v -1.368873 2.901801 0.234959
v 2.742074 3.543826 0.357066
v 2.907582 3.681280 0.147464
v 3.162757 3.681280 0.147464
v 3.328265 3.543826 0.357066
v 2.907582 3.681280 -0.175692
v 3.162757 3.681280 -0.175692
v 3.328265 3.543826 -0.385293
v 2.742074 3.543826 -0.385293
v -0.683715 2.814474 0.234959
v -1.368873 2.901801 0.234959
v 3.162757 3.681280 0.147464
v 3.162757 3.681280 0.147464
v 3.328265 3.543826 0.357066
v 3.328265 3.543826 0.357066
v 3.328265 3.543826 0.357066
v 0.686601 2.814474 0.234959
v 0.001443 2.761748 0.234959
v 2.742074 3.333488 0.234960
v 2.742074 3.333488 0.234960
v 2.742074 0.023165 0.234959
v 1.371758 2.901801 -0.263189
v 0.686601 2.814474 -0.263189
v 2.907582 3.681280 -0.175692
v 2.907582 3.681280 -0.175692
v 3.162757 3.681280 -0.175692
v 3.162757 3.681280 -0.175692
v 3.328265 3.543826 -0.385293
v 3.328265 3.543826 -0.385293
v 3.328265 3.543826 -0.385293
v 0.001443 2.761748 -0.263189
v -0.683715 2.814474 -0.263189
v -2.054031 3.071511 -0.263188
v -2.739189 3.333488 -0.263188
v 2.742074 3.543826 -0.385293
v 2.742074 3.543826 -0.385293
v 2.742074 3.543826 -0.385293
v 2.742074 3.543826 0.234960
v 2.742074 3.543826 -0.263188
v 1.371758 2.901801 0.234959
v -2.054031 3.071511 0.234960
v -2.739189 3.333488 0.234960
v -1.368873 2.901801 -0.263189
v 2.056916 3.071511 -0.263188
v 2.742074 3.333488 -0.263188
v 2.742074 3.333488 -0.263188
v 3.328265 0.023165 -0.385294
v 2.742074 3.543826 0.357066
v 2.742074 3.543826 0.357066
v 2.742074 3.543826 0.357066
v 2.056916 3.071511 0.234960
v 2.907582 3.681280 0.147464
v 2.907582 3.681280 0.147464
v 2.742074 0.023165 -0.385294
v 2.742074 0.023165 -0.263189
v 2.742074 0.023165 0.357065
v 3.328265 0.023165 0.357065
vt 0.379265 0.652296
vt 0.000000 0.688933
vt 0.008963 0.608663
vt 0.829512 0.050083
vt 0.820549 0.130354
vt 0.450247 0.086719
vt 0.442831 0.001701
vt 0.448918 0.466744
vt 0.451753 0.369946
vt 0.807089 0.374288
vt 0.808873 0.456895
vt 0.387435 0.085339
vt 0.382585 0.177414
vt 0.015960 0.198980
vt 0.008813 0.115427
vt 0.020639 0.282122
vt 0.808730 0.292386
vt 0.398593 0.000000
vt 0.000000 0.031765
vt 0.430918 0.739016
vt 0.820697 0.623589
vt 0.829510 0.707252
vt 0.446926 0.561602
vt 0.813551 0.540037
vt 0.454549 0.783631
vt 0.449213 0.828325
vt 0.417854 0.820363
vt 0.423910 0.757109
vt 0.386680 0.737314
vt 0.380593 0.272272
vt 0.377758 0.369070
vt 0.022422 0.364729
vt 0.442076 0.653677
vt 0.378153 0.465793
vt 0.377498 0.560446
vt 0.016119 0.527948
vt 0.020782 0.446631
vt 0.451358 0.273223
vt 0.452014 0.178570
vt 0.813393 0.211069
vt 0.407118 0.981348
vt 0.427346 0.963981
vt 0.436564 0.971057
vt 0.004386 1.000000
vt 0.003698 0.985145
vt 0.403123 0.740580
vt 0.433086 0.749814
vt 0.423910 0.757109
vt 0.000704 0.753858
vt 0.000762 0.739016
vt 0.000704 0.753858
vt 0.423910 0.757109
vt 0.417854 0.820363
vt 0.000000 0.824607
vt 0.000002 0.914337
vt 0.418820 0.900990
vt 0.427346 0.963981
vt 0.003698 0.985145
vt 0.000002 0.914337
vt 0.000000 0.824607
vt 0.417854 0.820363
vt 0.418820 0.900990
vt 0.642564 0.801739
vt 0.629448 0.943768
vt 0.569477 0.938230
vt 0.579200 0.798390
vt 0.379265 0.652296
vt 0.442076 0.653677
vt 0.430918 0.739016
vt 0.386680 0.737314
vt 0.377498 0.560446
vt 0.446926 0.561602
vt 0.378153 0.465793
vt 0.448918 0.466744
vt 0.377758 0.369070
vt 0.451753 0.369946
vt 0.380593 0.272272
vt 0.451358 0.273223
vt 0.382585 0.177414
vt 0.452014 0.178570
vt 0.387435 0.085339
vt 0.450247 0.086719
vt 0.398593 0.000000
vt 0.442831 0.001701
vt 0.433086 0.749814
vt 0.454549 0.783631
vt 0.423910 0.757109
vt 0.579200 0.798390
vt 0.569477 0.938230
vt 0.514959 0.822530
vt 0.511341 0.906606
vt 0.436564 0.971057
vt 0.427346 0.963981
vt 0.456549 0.937501
vt 0.511341 0.906606
vt 0.449046 0.898865
vt 0.449213 0.828325
vt 0.514959 0.822530
vt 0.449046 0.898865
vt 0.456549 0.937501
vt 0.427346 0.963981
vt 0.418820 0.900990
vt 0.418820 0.900990
vt 0.417854 0.820363
vt 0.449213 0.828325
vt 0.449046 0.898865
vt 0.000000 0.000000
vt 0.749199 0.001701
vt 0.749255 0.031990
vt 0.001230 0.029529
vn 0.0000 0.0000 -1.0000
vn -0.7071 0.0000 0.7071
vn 0.0000 0.0000 1.0000
vn -0.7071 0.0000 -0.7071
vn 0.0000 0.8362 -0.5484
vn -1.0000 0.0000 0.0000
vn 1.0000 0.0000 0.0000
vn -0.2993 0.9541 0.0000
vn -0.3571 0.9340 0.0000
vn -0.1837 0.9830 0.0000
vn -0.1016 0.9948 0.0000
vn 0.0000 1.0000 0.0000
vn 0.1016 0.9948 0.0000
vn 0.1837 0.9830 0.0000
vn 0.2993 0.9541 0.0000
vn -0.5669 0.8237 0.0000
vn -0.6389 0.7693 0.0000
vn 0.0000 0.8362 0.5484
vn 0.6389 0.7693 0.0000
usemtl Material
s 1
f 1/1/1 2/2/1 3/3/1
f 4/4/2 5/5/3 6/6/3
f 4/4/2 6/6/3 7/7/3
f 10/8/3 11/9/3 12/10/3
f 10/8/3 12/10/3 13/11/3
f 17/12/1 18/13/1 19/14/1
f 17/12/1 19/14/1 20/15/1
f 18/13/1 9/16/1 19/14/1
f 11/9/3 24/17/3 12/10/3
f 25/18/1 17/12/1 20/15/1
f 25/18/1 20/15/1 26/19/4
f 27/20/3 16/21/3 28/22/3
f 14/23/3 10/8/3 13/11/3
f 14/23/3 13/11/3 15/24/3
f 47/25/5 48/26/5 49/27/5
f 47/25/5 49/27/5 50/28/5
f 1/1/1 36/29/1 2/2/1
f 40/30/1 39/31/1 8/32/1
f 40/30/1 8/32/1 9/16/1
f 92/33/3 14/23/3 15/24/3
f 92/33/3 15/24/3 16/21/3
f 18/13/1 40/30/1 9/16/1
f 38/34/1 37/35/1 21/36/1
f 38/34/1 21/36/1 22/37/1
f 41/38/3 42/39/3 23/40/3
f 41/38/3 23/40/3 24/17/3
f 11/9/3 41/38/3 24/17/3
f 42/39/3 6/6/3 5/5/3
f 42/39/3 5/5/3 23/40/3
f 37/35/1 1/1/1 3/3/1
f 37/35/1 3/3/1 21/36/1
f 27/20/3 92/33/3 16/21/3
f 39/31/1 38/34/1 22/37/1
f 39/31/1 22/37/1 8/32/1
f 61/41/6 43/42/6 29/43/6
f 62/44/6 97/45/6 61/41/6
f 61/41/6 97/45/6 43/42/6
f 86/46/6 30/47/6 76/48/6
f 86/46/6 76/48/6 31/49/6
f 86/46/6 31/49/6 96/50/6
f 95/51/1 77/52/1 69/53/1
f 95/51/1 69/53/1 34/54/1
f 32/55/3 57/56/3 90/57/3
f 32/55/3 90/57/3 33/58/3
f 98/59/7 88/60/7 70/61/7
f 98/59/7 70/61/7 56/62/7
f 86/63/6 61/64/6 29/65/6
f 86/63/6 29/65/6 30/66/6
f 85/67/8 35/68/8 60/69/9
f 85/67/8 60/69/9 87/70/9
f 35/68/8 85/67/8 63/71/10
f 35/68/8 63/71/10 81/72/10
f 64/73/11 58/74/11 81/72/10
f 64/73/11 81/72/10 63/71/10
f 58/74/11 64/73/11 72/75/12
f 58/74/11 72/75/12 59/76/12
f 73/77/13 51/78/13 59/76/12
f 73/77/13 59/76/12 72/75/12
f 51/78/13 73/77/13 84/79/14
f 51/78/13 84/79/14 52/80/14
f 74/81/15 82/82/15 52/80/14
f 74/81/15 52/80/14 84/79/14
f 75/83/16 83/84/16 82/82/15
f 75/83/16 82/82/15 74/81/15
f 80/85/17 65/86/17 78/87/17
f 80/88/17 79/89/17 65/90/17
f 79/89/17 93/91/17 65/90/17
f 79/92/17 89/93/17 93/94/17
f 44/95/12 53/96/12 68/97/12
f 44/95/12 68/97/12 66/98/12
f 45/99/18 94/100/18 91/101/18
f 45/99/18 91/101/18 46/102/18
f 55/103/19 71/104/19 67/105/19
f 55/103/19 67/105/19 54/106/19
f 4/107/2 83/108/16 75/109/16
f 75/109/16 26/110/4 4/107/2
